<svg width="50" height="9" viewBox="0 0 50 9" fill="none" xmlns="http://www.w3.org/2000/svg">
<g clip-path="url(#clip0_36_2)">
<path fill-rule="evenodd" clip-rule="evenodd" d="M34.1727 0H45.1601C46.0854 0 46.4209 0.0963406 46.7592 0.277248C47.0974 0.458156 47.3629 0.72363 47.5438 1.0619C47.7247 1.40017 47.8211 1.73569 47.8211 2.66097V5.86436C47.8211 6.78964 47.7247 7.12517 47.5438 7.46344C47.3629 7.8017 47.0974 8.06718 46.7592 8.24809C46.4209 8.42899 46.0854 8.52533 45.1601 8.52533H34.1727C33.2474 8.52533 32.9119 8.42899 32.5736 8.24809C32.2353 8.06718 31.9699 7.8017 31.789 7.46344C31.6081 7.12517 31.5117 6.78964 31.5117 5.86436V2.66097C31.5117 1.73569 31.6081 1.40017 31.789 1.0619C31.9699 0.72363 32.2353 0.458156 32.5736 0.277248C32.9119 0.0963406 33.2474 0 34.1727 0ZM34.1727 0.741294C33.441 0.741294 33.1855 0.79062 32.9232 0.930926C32.7141 1.04274 32.5545 1.20239 32.4426 1.41147C32.3023 1.67382 32.253 1.92925 32.253 2.66093V5.86432C32.253 6.596 32.3023 6.85144 32.4426 7.11378C32.5545 7.32286 32.7141 7.48251 32.9232 7.59433C33.1855 7.73463 33.441 7.78396 34.1727 7.78396H45.16C45.8917 7.78396 46.1472 7.73463 46.4095 7.59433C46.6186 7.48251 46.7782 7.32286 46.89 7.11378C47.0304 6.85144 47.0797 6.596 47.0797 5.86432V2.66093C47.0797 1.92925 47.0304 1.67382 46.89 1.41147C46.7782 1.20239 46.6186 1.04274 46.4095 0.930926C46.1472 0.79062 45.8917 0.741294 45.16 0.741294H34.1727ZM49.6726 4.21782C49.6726 5.13453 48.5606 5.70049 48.5606 5.70049V2.73515C48.5606 2.73515 49.6726 3.30111 49.6726 4.21782Z" fill="black" fill-opacity="0.36"/>
<path d="M45.1462 1.41992H34.1744C33.5193 1.41992 32.9883 1.95097 32.9883 2.60605V5.91735C32.9883 6.57243 33.5193 7.10348 34.1744 7.10348H45.1462C45.8012 7.10348 46.3323 6.57243 46.3323 5.91735V2.60605C46.3323 1.95097 45.8012 1.41992 45.1462 1.41992Z" fill="black"/>
<path fill-rule="evenodd" clip-rule="evenodd" d="M10.4709 1.04027C10.4538 1.1262 10.4538 1.22954 10.4538 1.43622V7.14449C10.4538 7.35116 10.4538 7.4545 10.4709 7.54044C10.5411 7.89333 10.817 8.1692 11.1699 8.23939C11.2558 8.25649 11.3592 8.25649 11.5658 8.25649C11.7725 8.25649 11.8759 8.25649 11.9618 8.23939C12.3147 8.1692 12.5906 7.89333 12.6607 7.54044C12.6778 7.4545 12.6778 7.35116 12.6778 7.14449V1.43622C12.6778 1.22954 12.6778 1.1262 12.6607 1.04027C12.5906 0.68737 12.3147 0.411507 11.9618 0.341312C11.8759 0.324219 11.7725 0.324219 11.5658 0.324219C11.3592 0.324219 11.2558 0.324219 11.1699 0.341312C10.817 0.411507 10.5411 0.68737 10.4709 1.04027ZM6.96657 3.21572C6.96657 3.00904 6.96657 2.90571 6.98366 2.81977C7.05386 2.46687 7.32972 2.19101 7.68262 2.12082C7.76855 2.10372 7.87189 2.10372 8.07857 2.10372C8.28525 2.10372 8.38859 2.10372 8.47452 2.12082C8.82742 2.19101 9.10328 2.46687 9.17348 2.81977C9.19057 2.90571 9.19057 3.00904 9.19057 3.21572V7.14479C9.19057 7.35147 9.19057 7.45481 9.17348 7.54074C9.10328 7.89364 8.82742 8.1695 8.47452 8.2397C8.38859 8.25679 8.28525 8.25679 8.07857 8.25679C7.87189 8.25679 7.76855 8.25679 7.68262 8.2397C7.32972 8.1695 7.05386 7.89364 6.98366 7.54074C6.96657 7.45481 6.96657 7.35147 6.96657 7.14479V3.21572ZM3.5761 4.52355C3.55901 4.60949 3.55901 4.71283 3.55901 4.9195V7.1435C3.55901 7.35018 3.55901 7.45352 3.5761 7.53946C3.6463 7.89235 3.92216 8.16821 4.27506 8.23841C4.36099 8.2555 4.46433 8.2555 4.67101 8.2555C4.87769 8.2555 4.98103 8.2555 5.06696 8.23841C5.41986 8.16821 5.69572 7.89235 5.76592 7.53946C5.78301 7.45352 5.78301 7.35018 5.78301 7.1435V4.9195C5.78301 4.71282 5.78301 4.60949 5.76592 4.52355C5.69572 4.17066 5.41986 3.89479 5.06696 3.8246C4.98103 3.8075 4.87769 3.8075 4.67101 3.8075C4.46433 3.8075 4.36099 3.8075 4.27506 3.8246C3.92216 3.89479 3.6463 4.17066 3.5761 4.52355ZM0.0170934 6.00614C0 6.09207 0 6.19541 0 6.40209V7.14343C0 7.3501 0 7.45344 0.0170934 7.53938C0.0872887 7.89227 0.363152 8.16814 0.716048 8.23833C0.801982 8.25543 0.905321 8.25543 1.112 8.25543C1.31868 8.25543 1.42202 8.25543 1.50795 8.23833C1.86085 8.16814 2.13671 7.89227 2.20691 7.53938C2.224 7.45344 2.224 7.3501 2.224 7.14343V6.40209C2.224 6.19541 2.224 6.09207 2.20691 6.00614C2.13671 5.65324 1.86085 5.37738 1.50795 5.30719C1.42202 5.29009 1.31868 5.29009 1.112 5.29009C0.905321 5.29009 0.801982 5.29009 0.716048 5.30719C0.363152 5.37738 0.0872887 5.65324 0.0170934 6.00614Z" fill="black"/>
<path fill-rule="evenodd" clip-rule="evenodd" d="M22.0953 1.8801C23.7517 1.88018 25.3448 2.51665 26.5453 3.65798C26.6357 3.74609 26.7802 3.74498 26.8693 3.65548L27.7334 2.78337C27.7785 2.73797 27.8036 2.67649 27.8032 2.61252C27.8029 2.54854 27.777 2.48735 27.7314 2.44249C24.5805 -0.577184 19.6096 -0.577184 16.4587 2.44249C16.413 2.48732 16.3871 2.54849 16.3867 2.61246C16.3863 2.67644 16.4114 2.73794 16.4564 2.78337L17.3208 3.65548C17.4098 3.74511 17.5544 3.74623 17.6448 3.65798C18.8454 2.51657 20.4387 1.8801 22.0953 1.8801ZM22.0932 4.71697C23.0033 4.71691 23.8809 5.05519 24.5555 5.66608C24.6468 5.75278 24.7905 5.7509 24.8794 5.66184L25.7426 4.78973C25.788 4.74398 25.8133 4.68192 25.8126 4.61744C25.812 4.55295 25.7855 4.49142 25.7391 4.44661C23.6847 2.53564 20.5033 2.53564 18.449 4.44661C18.4026 4.49142 18.3761 4.55298 18.3755 4.61749C18.3749 4.682 18.4002 4.74405 18.4457 4.78973L19.3086 5.66184C19.3976 5.7509 19.5413 5.75278 19.6325 5.66608C20.3067 5.0556 21.1837 4.71734 22.0932 4.71697ZM23.7522 6.79951C23.7983 6.75421 23.8238 6.69186 23.8224 6.62719C23.8211 6.56253 23.7932 6.50127 23.7452 6.45789C22.7917 5.65139 21.3951 5.65139 20.4416 6.45789C20.3936 6.50124 20.3656 6.56247 20.3643 6.62714C20.3629 6.69181 20.3883 6.75417 20.4344 6.79951L21.9277 8.30628C21.9715 8.35056 22.0311 8.37548 22.0934 8.37548C22.1557 8.37548 22.2153 8.35056 22.2591 8.30628L23.7522 6.79951Z" fill="black"/>
</g>
<defs>
<clipPath id="clip0_36_2">
<rect width="50" height="9" fill="white"/>
</clipPath>
</defs>
</svg>
